<svg width="174" height="174" viewBox="0 0 174 174" fill="none" xmlns="http://www.w3.org/2000/svg">
<path d="M0 0H174V174H0V0Z" fill="#FF0080"/>
<path fill-rule="evenodd" clip-rule="evenodd" d="M141 88H135V61H38V113H95V119H32V43H141V88ZM129 55H135V49H129V55ZM38 55H123V49H38V55Z" fill="white"/>
<path fill-rule="evenodd" clip-rule="evenodd" d="M106.412 91.0107C110.502 91.2183 113.782 94.4976 113.989 98.5879L114 99C114 102.329 111.966 105.182 109.074 106.387V118.262L115 123.12V117H121V133H105V127H110.269L103.074 121.101V106.445C100.104 105.277 98 102.385 98 99L98.0107 98.5879C98.2252 94.3611 101.72 91 106 91L106.412 91.0107ZM106 97C104.895 97 104 97.8954 104 99C104 100.105 104.895 101 106 101C107.105 101 108 100.105 108 99C108 97.8954 107.105 97 106 97Z" fill="white"/>
<path fill-rule="evenodd" clip-rule="evenodd" d="M132.588 132.989C128.498 132.782 125.218 129.502 125.011 125.412L125 125C125 121.671 127.034 118.818 129.926 117.613V105.738L124 100.88V107H118V91H134V97H128.731L135.926 102.899V117.555C138.896 118.723 141 121.615 141 125L140.989 125.412C140.775 129.639 137.28 133 133 133L132.588 132.989ZM133 127C134.105 127 135 126.105 135 125C135 123.895 134.105 123 133 123C131.895 123 131 123.895 131 125C131 126.105 131.895 127 133 127Z" fill="white"/>
</svg>
