<svg width="174" height="174" viewBox="0 0 174 174" fill="none" xmlns="http://www.w3.org/2000/svg">
<rect width="174" height="174" fill="#FF0080"/>
<path d="M126 46C126 46.4 126 54.5 126 58.5" stroke="white" stroke-width="6"/>
<path d="M115.75 78C123.899 78 130.5 84.623 130.5 92.7871C130.5 96.2906 129.283 99.511 127.251 102.045L127.652 102.447L128.345 102.101L128.99 101.776L129.501 102.288L142.558 115.381L142.687 115.517C143.979 116.951 143.937 119.166 142.558 120.549C141.177 121.933 138.964 121.977 137.531 120.679L137.395 120.549L124.348 107.466L123.84 106.957L124.16 106.313L124.526 105.579L123.995 105.046C121.641 106.64 118.804 107.575 115.75 107.575C107.601 107.575 101 100.951 101 92.7871C101 84.623 107.601 78 115.75 78ZM115.75 82.6318C110.161 82.6318 105.625 87.1761 105.625 92.7871C105.625 98.3982 110.161 102.942 115.75 102.942C121.339 102.942 125.875 98.3982 125.875 92.7871C125.875 87.1761 121.339 82.6318 115.75 82.6318Z" fill="white"/>
<path d="M141 100H135V61H38V113H122.207V119H32V55H141V100Z" fill="white"/>
<rect x="35" y="46" width="103" height="12" stroke="white" stroke-width="6"/>
</svg>
