<svg width="174" height="174" viewBox="0 0 174 174" fill="none" xmlns="http://www.w3.org/2000/svg">
<rect width="174" height="174" fill="#FF0080"/>
<rect x="35" y="99.4364" width="22.2286" height="22.2286" fill="white"/>
<rect x="35" y="75.62" width="22.2286" height="22.2286" fill="white"/>
<rect x="58.8164" y="99.4364" width="22.2286" height="22.2286" fill="white"/>
<rect x="58.8164" y="75.62" width="22.2286" height="22.2286" fill="white"/>
<rect x="100.775" y="37.7532" width="22.2286" height="22.2286" transform="rotate(-15 100.775 37.7532)" fill="white"/>
<rect x="62.3901" y="49.0742" width="22.2286" height="22.2286" transform="rotate(-35 62.3901 49.0742)" fill="white"/>
<rect x="98.4307" y="68.3588" width="22.2286" height="22.2286" transform="rotate(15 98.4307 68.3588)" fill="white"/>
<rect x="35" y="51.8036" width="22.2286" height="22.2286" fill="white"/>
<rect x="82.6328" y="99.4364" width="22.2286" height="22.2286" fill="white"/>
<rect x="89" y="93" width="46" height="29" fill="#FF0080"/>
<path d="M109.75 99C117.899 99 124.5 105.623 124.5 113.787C124.5 117.291 123.283 120.511 121.251 123.045L121.652 123.447L122.345 123.101L122.99 122.776L123.501 123.288L136.558 136.381C137.981 137.808 137.981 140.121 136.558 141.549C135.132 142.978 132.82 142.978 131.395 141.549L118.348 128.466L117.84 127.957L118.16 127.313L118.526 126.579L117.995 126.046C115.641 127.64 112.804 128.575 109.75 128.575C101.601 128.575 95 121.951 95 113.787C95.0002 105.623 101.601 99 109.75 99ZM109.75 103.632C104.161 103.632 99.6252 108.176 99.625 113.787C99.625 119.398 104.161 123.942 109.75 123.942C115.339 123.942 119.875 119.398 119.875 113.787C119.875 108.176 115.339 103.632 109.75 103.632Z" fill="white"/>
</svg>
