<svg width="174" height="174" viewBox="0 0 174 174" fill="none" xmlns="http://www.w3.org/2000/svg">
<rect width="174" height="174" fill="#FF0080"/>
<g clip-path="url(#clip0_7_245)">
<path fill-rule="evenodd" clip-rule="evenodd" d="M121.979 86.4068C119.663 88.1854 116.767 89.2423 113.625 89.2423C106.031 89.2423 99.875 83.0694 99.875 75.4549C99.875 67.8404 106.031 61.6675 113.625 61.6675C121.219 61.6675 127.375 67.8404 127.375 75.4549C127.375 79.0437 126.007 82.3124 123.766 84.7654L125.33 86.3328L126.667 85.6621L139.724 98.7541C140.759 99.7914 140.759 101.473 139.724 102.51C138.69 103.548 137.012 103.548 135.978 102.51L122.93 89.4273L123.617 88.0498L121.979 86.4068ZM124.75 75.4549C124.75 81.6157 119.769 86.6101 113.625 86.6101C107.481 86.6101 102.5 81.6157 102.5 75.4549C102.5 69.2941 107.481 64.2996 113.625 64.2996C119.769 64.2996 124.75 69.2941 124.75 75.4549Z" fill="white"/>
<path fill-rule="evenodd" clip-rule="evenodd" d="M75.3764 47.2534L34.25 75.4198V127.338L76.1486 98.6428H118V96.136H77.0125V49.7602H134.513V79.8418H137.013V47.2534H75.3764ZM74.5125 72.2863V50.8808L56.8813 62.956V84.3615L74.5125 72.2863ZM36.75 76.7434L54.3813 64.6681V86.0737L36.75 98.1489V76.7434ZM36.75 101.185L54.3813 89.1094V110.515L36.75 122.59V101.185ZM74.5125 96.7276L56.8813 108.803V87.3973L74.5125 75.322V96.7276Z" fill="white"/>
<path fill-rule="evenodd" clip-rule="evenodd" d="M121.979 86.4068C119.663 88.1854 116.767 89.2423 113.625 89.2423C106.031 89.2423 99.875 83.0694 99.875 75.4549C99.875 67.8404 106.031 61.6675 113.625 61.6675C121.219 61.6675 127.375 67.8404 127.375 75.4549C127.375 79.0437 126.007 82.3124 123.766 84.7654L125.33 86.3328L126.667 85.6621L139.724 98.7541C140.759 99.7914 140.759 101.473 139.724 102.51C138.69 103.548 137.012 103.548 135.978 102.51L122.93 89.4273L123.617 88.0498L121.979 86.4068ZM124.75 75.4549C124.75 81.6157 119.769 86.6101 113.625 86.6101C107.481 86.6101 102.5 81.6157 102.5 75.4549C102.5 69.2941 107.481 64.2996 113.625 64.2996C119.769 64.2996 124.75 69.2941 124.75 75.4549Z" stroke="white" stroke-width="2"/>
<path fill-rule="evenodd" clip-rule="evenodd" d="M75.3764 47.2534L34.25 75.4198V127.338L76.1486 98.6428H118V96.136H77.0125V49.7602H134.513V79.8418H137.013V47.2534H75.3764ZM74.5125 72.2863V50.8808L56.8813 62.956V84.3615L74.5125 72.2863ZM36.75 76.7434L54.3813 64.6681V86.0737L36.75 98.1489V76.7434ZM36.75 101.185L54.3813 89.1094V110.515L36.75 122.59V101.185ZM74.5125 96.7276L56.8813 108.803V87.3973L74.5125 75.322V96.7276Z" stroke="white" stroke-width="3"/>
</g>
<defs>
<clipPath id="clip0_7_245">
<rect width="108.75" height="82.7244" fill="white" transform="translate(33 46)"/>
</clipPath>
</defs>
</svg>
